<?xml version="1.0" encoding="UTF-8"?>
<svg xmlns="http://www.w3.org/2000/svg" version="1.1" xmlns:xlink="http://www.w3.org/1999/xlink" viewBox="0 0 1512 481.19">
  <!-- Generator: Adobe Illustrator 29.0.0, SVG Export Plug-In . SVG Version: 2.1.0 Build 186)  -->
  <defs>
    <style>
      .st0 {
        fill: url(#linear-gradient2);
      }

      .st1 {
        fill: #373637;
      }

      .st2 {
        fill: url(#linear-gradient10);
      }

      .st3 {
        fill: #0a0c0c;
      }

      .st4 {
        fill: #fff;
      }

      .st5 {
        fill: url(#linear-gradient1);
      }

      .st6 {
        fill: url(#linear-gradient9);
      }

      .st7 {
        fill: #71706e;
      }

      .st8 {
        fill: url(#linear-gradient8);
      }

      .st9 {
        fill: url(#linear-gradient11);
      }

      .st10 {
        fill: url(#linear-gradient16);
      }

      .st11 {
        isolation: isolate;
      }

      .st12 {
        fill: url(#linear-gradient12);
      }

      .st13 {
        fill: url(#linear-gradient7);
      }

      .st14 {
        fill: url(#linear-gradient4);
      }

      .st15 {
        fill: url(#linear-gradient14);
      }

      .st16 {
        fill: url(#linear-gradient5);
      }

      .st17 {
        mix-blend-mode: multiply;
      }

      .st18 {
        fill: url(#linear-gradient3);
      }

      .st19 {
        fill: url(#linear-gradient15);
      }

      .st20 {
        fill: url(#linear-gradient17);
      }

      .st21 {
        fill: url(#linear-gradient6);
      }

      .st22 {
        fill: url(#linear-gradient13);
      }

      .st23 {
        fill: #1d1e1c;
      }

      .st24 {
        fill: url(#linear-gradient);
      }
    </style>
    <linearGradient id="linear-gradient" x1="643" y1="291.14" x2="660.23" y2="291.14" gradientUnits="userSpaceOnUse">
      <stop offset="0" stop-color="#2a2247"/>
      <stop offset="1" stop-color="#2a2247"/>
    </linearGradient>
    <linearGradient id="linear-gradient1" x1="702.66" x2="728.03" xlink:href="#linear-gradient"/>
    <linearGradient id="linear-gradient2" x1="685.83" x2="701.38" xlink:href="#linear-gradient"/>
    <linearGradient id="linear-gradient3" x1="662.85" y1="291.14" x2="682.06" y2="291.14" xlink:href="#linear-gradient"/>
    <linearGradient id="linear-gradient4" x1="615.4" x2="640.75" xlink:href="#linear-gradient"/>
    <linearGradient id="linear-gradient5" x1="735.9" y1="291.19" x2="761.49" y2="291.19" xlink:href="#linear-gradient"/>
    <linearGradient id="linear-gradient6" x1="786.46" y1="291.19" x2="789.9" y2="291.19" xlink:href="#linear-gradient"/>
    <linearGradient id="linear-gradient7" x1="812.4" y1="291.24" x2="835.94" y2="291.24" xlink:href="#linear-gradient"/>
    <linearGradient id="linear-gradient8" x1="856.43" y1="291.24" x2="879.97" y2="291.24" xlink:href="#linear-gradient"/>
    <linearGradient id="linear-gradient9" x1="837.36" y1="291.24" x2="858.2" y2="291.24" xlink:href="#linear-gradient"/>
    <linearGradient id="linear-gradient10" x1="763.7" y1="291.19" x2="782.97" y2="291.19" xlink:href="#linear-gradient"/>
    <linearGradient id="linear-gradient11" x1="793.07" y1="291.19" x2="812.02" y2="291.19" xlink:href="#linear-gradient"/>
    <linearGradient id="linear-gradient12" x1="876.71" y1="279.9" x2="879.97" y2="279.9" xlink:href="#linear-gradient"/>
    <linearGradient id="linear-gradient13" x1="877.44" y1="279.9" x2="879.25" y2="279.9" xlink:href="#linear-gradient"/>
    <linearGradient id="linear-gradient14" x1="870.9" y1="211.28" x2="880.97" y2="211.28" xlink:href="#linear-gradient"/>
    <linearGradient id="linear-gradient15" x1="873.13" y1="211.28" x2="878.74" y2="211.28" xlink:href="#linear-gradient"/>
    <linearGradient id="linear-gradient16" x1="780.25" y1="259.09" x2="671.81" y2="71.27" gradientUnits="userSpaceOnUse">
      <stop offset="0" stop-color="#0ca3dd"/>
      <stop offset=".09" stop-color="#1286bb"/>
      <stop offset=".21" stop-color="#196798"/>
      <stop offset=".34" stop-color="#1f4e7a"/>
      <stop offset=".48" stop-color="#243a63"/>
      <stop offset=".62" stop-color="#272c53"/>
      <stop offset=".78" stop-color="#29244a"/>
      <stop offset="1" stop-color="#2a2247"/>
    </linearGradient>
    <linearGradient id="linear-gradient17" x1="805.32" y1="208.37" x2="755.78" y2="89.83" xlink:href="#linear-gradient"/>
  </defs>
  <g class="st11">
    <g id="Capa_1">
      <g>
        <g>
          <g>
            <path d="M867.49,424.73c-9.72-4.52-18.17-11.93-23.78-20.86-5.61-8.93-8.56-19.31-9.29-32.68-.24-4.32-.24-9.73,0-16.52l.05-1.43,1.41-.24c10.75-1.8,21.63-2.71,32.34-2.71s21.59.91,32.34,2.71l1.41.24.05,1.43c.24,6.8.24,12.2,0,16.52-.73,13.37-3.68,23.75-9.29,32.68-5.61,8.93-14.06,16.34-23.78,20.86l-.74.34-.74-.34Z"/>
            <g>
              <g>
                <path class="st4" d="M853.19,395.52c-.21.04-.32-.07-.35-.21-.08-.38-.3-1.68-.36-2.06-.04-.21.03-.33.22-.39.93-.3,2.49-.83,3.74-1.27.32-.11.42-.24.61-.53.53-.84,1.82-3.12,2.43-4.3.09-.17.08-.37-.02-.53l-.28-.46c-.1-.16-.32-.33-.5-.37-1.28-.33-2.97-.74-3.76-.93-.18-.04-.36-.04-.54.02l-.15.05c1.22.42,2.26.79,3.58,1.29.11.04.24.17.27.29l.12.4c.05.16.03.34-.04.49-.56,1.1-1.53,2.55-2.31,3.49-.12.14-.27.25-.44.31-.75.28-2.11.73-2.71.88-.12.03-.18.02-.28-.05-.43-.3-1.32-1.14-1.32-1.14,0,0-.08.91-.08,1.32,0,.05,0,.09.03.13.15.36.42,1.04.53,1.38.03.09.05.17.08.26.15.6.56,2.36.56,2.36.06.27.21.36.45.31.3-.07,1.27-.34,1.67-.47.06-.02.12-.05.16-.1.26-.24.69-.63.69-.63,0,0-1.46.36-2.01.46Z"/>
                <path class="st4" d="M855.39,390.12c.5-.6,1.15-1.56,1.7-2.46l-4.06,3.35c.67-.2,1.57-.51,2.11-.71.1-.04.18-.1.25-.18Z"/>
                <path class="st4" d="M855.49,376.63l-.73.06c-.06,0-.1.05-.11.11l-.07.86s.04.08.08.07l.73-.16c.09-.02.19-.1.23-.18.09-.21.11-.44.02-.66-.03-.06-.09-.1-.16-.1Z"/>
                <path class="st4" d="M848.41,387.41l1.1,1.29.32-2.23c-.64.1-1.22.51-1.42.94Z"/>
                <path class="st4" d="M884.35,387.18c-.45-.8-2.69-3.83-5.49-6.75-.1-.11-.22-.19-.36-.25l-.46-.2s.81,3.56,1.18,5.51c.05.25.17.48.35.65,1.25,1.24,2.08,2.21,2.77,3.23.3.44.47.96.51,1.49.19,2.83.1,6.71-.22,8.88-.06.44-.17.59-.46.83-2.71,2.19-7.19,6.05-9.11,7.95-.2.2-.28.29-.4.48-.25.38-.52.95-.52.95,0,0-.46-1.4-.56-2.16-.05-.36-.05-.45,0-.82.23-1.63,1.37-5.41,1.56-5.97.02-.05.02-.1.02-.15v-.35c-.41.86-2.54,5.65-2.99,7.29-.09.35-.08.48.01.74.28.79,1.08,2.76,1.45,3.56,0,0,.87-1.64,1.38-2.46.14-.23.32-.44.51-.62,1.51-1.4,6.95-5.94,9.49-7.85.34-.26.44-.44.54-.79,1.03-3.92,1.46-8.44.96-12.7-.02-.18-.08-.33-.17-.48Z"/>
                <path class="st4" d="M873.21,375.7c.1-.18.14-.39.11-.6-.08-.49-.21-1.07-.32-1.51-.02-.08-.08-.15-.15-.19l-.77-.37c-.1-.05-.21-.06-.32-.04-1.85.33-3.79.71-5.27,1.05-.12.03-.22.1-.28.21l-.46.79c-.04.06,0,.14.07.15.39.07,1.17.21,1.44.25.17.02.22.02.36-.04.93-.39,2.46-.98,3.59-1.39.09-.03.19-.03.28,0l.52.17c.08.02.14.08.18.15.14.25.29.53.38.71.06.13.03.3-.08.46-.38.56-1.04,1.43-1.49,1.98-.1.12-.13.28-.09.43.27.92.84,2.8,1.15,3.7.04.11.09.19.18.27l.43.39s-.69-3.19-.85-4.1c-.03-.14-.02-.29.07-.41.36-.53,1.02-1.52,1.33-2.07Z"/>
                <path class="st4" d="M889.73,378.32c-.05-.24-.13-.34-.33-.49-2.07-1.54-5.79-3.73-8.01-4.66-.29-.12-.6-.13-.9-.02-1.06.39-2.74,1.1-4.5,1.92,0,0,.77.06,1.14.1.19.02.26.02.44-.03.54-.15,1.49-.38,2.25-.55.37-.08.75,0,1.05.22,1.03.77,2.69,2.1,3.75,2.99.18.15.39.28.62.37,1.62.65,2.33.97,2.69,1.16.25.13.44.36.51.64.42,1.62.7,4.11.85,5.9.03.33-.02.67-.13.98-.46,1.29-1.59,3.43-2.22,4.45-.06.09-.12.16-.23.26-.22.19-.62.51-.91.74-.06.04-.09.11-.09.18,0,.7-.14,2.04-.14,2.04,1.55-1.95,3.03-4.47,4.34-7.15.11-.22.15-.34.17-.55.31-2.88.12-6.29-.36-8.5Z"/>
                <path class="st4" d="M869.12,413.13c-.36-.82-2.27-5.32-2.78-7.04-.18-.61-.2-.77-.13-1.46.43-4.23,1.95-10.96,2.19-11.88.05-.19.04-.25,0-.45-.06-.35-.27-1.56-.27-1.56-.69,1.59-3.13,8.17-4.04,12.04-.17.73-.14.92.01,1.32,1.3,3.37,4.61,9.45,5.22,10.37l-.14-1.06c-.01-.1-.04-.19-.08-.28Z"/>
                <path class="st4" d="M866.17,413.39s-.72-.47-.94-.62c-.23-.15-.31-.22-.42-.32-1.5-1.36-6.79-7.85-8.37-10.67-.27-.47-.34-.7-.32-1.17.03-.54.13-1.59.24-2.21.07-.38.15-.64.48-.93.9-.81,2.35-2.27,3.1-3.04.33-.34.5-.55.67-.88.69-1.3,2.82-5.91,3.53-7.81.13-.34.13-.43.09-.78-.14-.99-.93-3.56-.93-3.56l-.07.86c0,.06,0,.12,0,.18.06.37.3,1.84.3,2.6,0,.26-.02.36-.16.63-1.07,2.1-5.23,7.69-7.86,10.72-.3.34-.38.57-.46.95-.14.64-.29,2.1-.39,3.26-.05.62-.01.84.38,1.49,1.59,2.64,6.99,8.95,8.75,10.42.12.1.24.18.37.25.62.33,2.31,1.17,2.31,1.17l-.26-.46s-.04-.06-.07-.08Z"/>
                <path class="st4" d="M858.32,375.77l3.35-1.05c.2-.06.36-.19.46-.38l1.79-3.08c.04-.07-.01-.16-.1-.16l-1.53.02c-.13,0-.3.03-.43.07-1.33.44-3.23,1.29-4.29,1.85-.12.06-.23.17-.32.27l-1.62,1.99c-.05.07-.12.12-.2.15l-1.05.44c-.05.02-.09.06-.11.11l-.05.11s2.21-.07,2.95-.13c.41-.03.73-.09,1.12-.21Z"/>
                <path class="st4" d="M864.47,368.5c4.22-.32,9.08-.23,10.26-.2.18,0,.35.03.52.09l.86.29c-2.12.11-7.24.57-9.32.92l.73.11c.05,0,.1.01.16,0,1.53-.09,4.54-.19,5.85-.21.32,0,.49.02.82.15.77.29,2.31.99,2.94,1.31.33.17.56.23.9.24.69.03,1.74.1,2.52.18.21.02.42.08.61.18,1.6.81,3.52,1.95,4.83,2.83.08.05.16.09.25.1l.65.13s-2.08-2.12-2.9-2.85c-.12-.1-.25-.2-.38-.27-3.09-1.77-5.88-3.21-7.44-3.87-.25-.11-.52-.17-.79-.19-4.79-.36-9.8-.27-13.5.05-.26.02-.48.15-.6.33-.14.21-.38.59-.6.94-.11.17-.23.32-.39.46-.67.58-1.79,1.53-2.5,2.06-.06.05-.09.07-.14.1-.3.2-1.28.85-1.46.97-.07.04-.08.06-.13.12-.06.07-.35.45-.35.45,2.95-1.66,6.7-3.74,7.99-4.3.19-.08.4-.13.6-.15Z"/>
                <path class="st4" d="M850.71,377.85s-.08.09-.13.13c-2.62,1.87-4.09,3.06-4.67,3.55-.24.23-.46.46-.67.67-.19.19-.23.26-.24.42-.01.13-.02.3-.02.4,0,.06.01.1.05.15.04.06.24.29.29.34.02.02.06.03.08.01.39-.27.93-.68,1.43-1.05.04-.03.11-.1.14-.15.08-.14.19-.35.26-.48.04-.09.07-.11.17-.18.1-.06.4-.25.4-.25,0,0-.22.92-.38,1.24-.06.11-.11.19-.15.23-.39.4-1.09,1.19-1.44,1.61-.12.14-.08.32.02.46.32.48.99,1.3,1.4,1.73.13.13.18.19.3.25.17.1.29.13.29.13,0,0,.34-1.61.48-2.11.05-.17.15-.3.37-.36,1.72-.43,5.43-1.04,5.43-1.04-.39-.47-1.7-1.81-2.09-2.15-.12-.1-.23-.15-.39-.17-.48-.06-2.05-.17-2.05-.17,0,0,.14-.15.24-.25.09-.1.15-.13.27-.18,1.93-.67,4.5-1.64,6-2.27.33-.14.48-.23.74-.5.11-.12.34-.37.47-.53.03-.03.04-.06.05-.1,0-.05.02-.13.02-.13,0,0-.64.48-.9.66-.23.16-.38.24-.66.31-.53.14-1.52.37-2.12.51-.16.04-.24.04-.39-.02-.09-.03-.28-.11-.38-.16-.12-.05-.17-.06-.3-.03-.53.12-1.96.47-1.96.47,0,0,.66-.59.71-.63.06-.05.09-.06.2-.11.5-.2,1.11-.42,1.63-.63.12-.05.17-.11.18-.22.03-.4.15-1.12.21-1.49.02-.11.05-.17.14-.23.3-.24,1.42-1.09,1.68-1.29l.05-.05.3-.37c-.79.46-2.21,1.3-2.94,1.76-.31.2-.47.3-.78.55-.03.03-.06.06-.09.09-.19.24-.98,1.26-1.25,1.63Z"/>
              </g>
              <g>
                <path class="st4" d="M849.53,363.22v-4.52c1.92-.17,3.84-.31,5.77-.43v.74c-1.68.1-3.35.23-5.03.37v1.12c1.48-.13,2.97-.24,4.45-.33v.74c-1.48.09-2.97.21-4.45.33v1.18c1.68-.14,3.35-.27,5.03-.37v.74c-1.92.12-3.85.26-5.77.43Z"/>
                <path class="st4" d="M841.68,364.06v-4.52c1.52-.19,3.04-.37,4.57-.53.26-.03.48-.02.66.03.19.05.35.13.46.25.11.12.19.26.23.43.03.14.05.3.05.46v.53c0,.16-.02.32-.05.47-.04.18-.12.33-.23.47-.11.14-.27.25-.46.33-.18.08-.39.13-.65.16-1.28.13-2.55.28-3.83.43v1.41c-.25.03-.49.06-.74.09ZM842.42,361.83c1.35-.17,2.71-.32,4.06-.46.23-.02.42-.23.42-.47v-.79c0-.23-.19-.4-.42-.38-1.36.14-2.71.29-4.06.46v1.64Z"/>
                <path class="st4" d="M882.61,362.88c-.29-.02-.52-.05-.71-.1-.22-.06-.4-.14-.53-.26-.15-.13-.25-.28-.31-.47-.05-.15-.07-.33-.07-.53,0-.67,0-1.34,0-2.01,0-.2.02-.37.07-.52.06-.18.16-.33.31-.43.14-.1.31-.16.53-.19.19-.03.42-.03.71,0,1,.07,2,.14,3,.23.29.02.52.06.71.12.22.06.4.15.53.27.15.13.25.29.31.48.05.15.07.33.07.53,0,.67,0,1.34,0,2.01,0,.2-.02.37-.07.52-.06.18-.16.32-.31.42-.14.09-.31.15-.53.18-.19.02-.42.02-.71,0-1-.08-2-.16-3-.23ZM882.16,359.07c-.23-.02-.42.16-.42.39,0,.73,0,1.46,0,2.2,0,.23.19.43.42.45.12,0,.25.02.37.02.03,0,.05,0,.08,0,1,.07,1.99.14,2.99.23.02,0,.04,0,.06,0,.13.01.27.02.4.03.23.02.42-.15.42-.39,0-.73,0-1.46,0-2.2,0-.23-.19-.44-.42-.46-1.3-.11-2.6-.21-3.9-.29Z"/>
                <path class="st4" d="M891.37,363.66v-3.78c-.88-.1-1.76-.19-2.65-.27v-.74c2.01.2,4.02.42,6.03.67v.74c-.88-.11-1.76-.22-2.64-.32v3.78c-.25-.03-.49-.06-.74-.08Z"/>
                <path class="st4" d="M873.29,362.45v-4.52c1.93.05,3.85.12,5.78.22,0,.25,0,.49,0,.74-1.68-.09-3.36-.15-5.04-.2v1.12c1.49.04,2.97.1,4.46.17,0,.25,0,.49,0,.74-1.49-.07-2.97-.13-4.46-.17v1.18c1.68.05,3.36.11,5.04.2,0,.25,0,.49,0,.74-1.93-.1-3.85-.17-5.78-.22Z"/>
                <path class="st4" d="M866.89,362.4c-.29,0-.52-.01-.71-.05-.22-.04-.4-.11-.53-.22-.15-.11-.26-.27-.31-.45-.05-.15-.07-.32-.07-.52,0-.67,0-1.33,0-2,0-.43.11-.76.33-.97.22-.21.59-.31,1.14-.32,1.43,0,2.85,0,4.28.01v.74c-1.53-.02-3.06-.02-4.59-.01-.23,0-.42.19-.42.43,0,.7,0,1.4,0,2.11,0,.03,0,.06,0,.09,0,.23.19.42.42.42.12,0,.25,0,.37,0,.03,0,.06,0,.09,0,1.24,0,2.48,0,3.72,0v-1.18c-.8,0-1.61-.01-2.41-.01,0-.25,0-.49,0-.74,1.05,0,2.1,0,3.15.02v2.66c-1.49-.02-2.98-.03-4.47-.02Z"/>
                <path class="st4" d="M858.85,362.6c-.29.01-.52,0-.71-.02-.22-.03-.4-.1-.53-.2-.15-.11-.25-.26-.31-.44-.05-.15-.07-.32-.07-.52v-3.26c.25-.01.49-.03.74-.04,0,1.12,0,2.23,0,3.35,0,.23.19.41.42.4,1.26-.06,2.52-.11,3.78-.14.23,0,.42-.2.42-.43,0-1.12,0-2.23,0-3.35.25,0,.49-.01.74-.02v3.26c0,.2-.02.37-.07.52-.06.18-.16.34-.31.46-.14.11-.32.19-.53.24-.19.04-.42.07-.71.08-.95.03-1.91.07-2.86.11Z"/>
              </g>
              <path class="st4" d="M900.55,354.63c-11.02-1.9-21.87-2.79-32.33-2.79s-21.31.89-32.33,2.79c-.16,4.41-.35,11.23-.04,17.02.7,12.9,3.54,22.91,8.95,31.51,5.39,8.57,13.73,15.94,23.42,20.32,9.69-4.38,18.03-11.75,23.41-20.32,5.4-8.6,8.25-18.61,8.95-31.51.31-5.79.13-12.6-.04-17.02ZM899.35,371.58c-.69,12.68-3.47,22.5-8.76,30.92-5.29,8.41-13.21,15.36-22.36,19.62-9.15-4.26-17.08-11.2-22.36-19.62-5.29-8.41-8.07-18.24-8.76-30.92-.23-4.14-.22-9.35,0-15.89,10.35-1.73,20.81-2.6,31.12-2.6s20.77.88,31.12,2.6c.23,6.54.23,11.75,0,15.89Z"/>
            </g>
          </g>
          <g id="Fiat_LOGO" class="st11">
            <g id="Grupo_909">
              <path id="Caminho_146" d="M1290.18,360.36h-15.89v53.49h7.25v-24.17h8c.71,4.42.78,22.74.78,24.17h7.34c.23-13.58.1-38.88-7.48-53.49M1281.44,383.49v-17.02h3.88c1.4,3.39,2.39,6.93,2.95,10.56.62,3.51.94,6.46.94,6.46h-7.77Z"/>
              <rect id="Retângulo_55" x="1260.58" y="360.36" width="7.96" height="53.53"/>
              <path id="Caminho_147" d="M1240.41,360.36v53.53h7.96v-24.23h5.83v-6.2h-5.83v-16.92h7.48v-6.17h-15.44Z"/>
              <path id="Caminho_148" d="M1297.7,360.36v6.17h5.7l.03,47.32h7.85v-47.32h5.75v-6.17h-19.32Z"/>
            </g>
          </g>
          <g>
            <path class="st7" d="M106.35,348.92c-21.06,0-38.14,17.08-38.14,38.14s17.08,38.14,38.14,38.14,38.14-17.08,38.14-38.14-17.08-38.14-38.14-38.14M142.01,387.06c0,19.69-15.97,35.66-35.66,35.66s-35.66-15.97-35.66-35.66,15.97-35.66,35.66-35.66,35.66,15.97,35.66,35.66"/>
            <path class="st7" d="M106.35,409.67v-1.24c-11.79,0-21.38-9.59-21.38-21.38h-1.24c0,12.49,10.13,22.62,22.62,22.62M106.35,365.68c11.79,0,21.38,9.59,21.38,21.38h1.24c0-12.49-10.13-22.62-22.62-22.62"/>
            <path class="st7" d="M124.84,370.88c.52.56,1.26,1.45,1.68,2l7.72-4.9c-.39-.51-1-1.27-1.46-1.81l-4.89,3.23-.33.29.25-.36,2.16-4.31-1.53-1.53-4.31,2.16-.36.25.29-.33,3.24-4.89c-.57-.48-1.12-.93-1.81-1.47l-4.9,7.72c.62.48,1.44,1.18,1.96,1.66l4.62-2.39.3-.22-.22.3-2.39,4.62Z"/>
            <path class="st7" d="M107.32,361.1l2.11-4.73.13-.42-.04.44.22,6.32c.74.07,1.5.17,2.26.3l-.34-9.36c-1.05-.12-2.1-.2-3.15-.24l-2.08,5.16-.07.38-.07-.38-2.08-5.16c-1.05.04-2.1.13-3.15.24l-.34,9.36c.75-.12,1.52-.23,2.26-.3l.22-6.32-.04-.44.13.42,2.11,4.73h1.92Z"/>
            <path class="st7" d="M90.25,368.55c1.22-1.28,1.91-2.77.69-4.19-.66-.77-1.78-.94-2.7-.56l-.09.04.03-.08c.14-.36.22-1.53-.77-2.34-.48-.39-1.09-.54-1.71-.48-1.15.12-2.03.9-4.43,3.58-.72.81-1.78,2.08-2.41,2.91l6.59,6.25c2.19-2.42,3.08-3.32,4.8-5.13M81.65,367.02c1.33-1.62,2.74-3.1,3.38-3.68.2-.18.42-.37.69-.44.43-.12.88.19.98.63.1.45-.18.87-.49,1.22-.7.79-3.28,3.48-3.28,3.48l-1.28-1.22ZM84.23,369.47s2.51-2.65,3.32-3.5c.32-.34.53-.54.76-.65.29-.14.6-.17.89.02.28.19.41.51.34.83-.08.38-.39.74-.65,1.02-.35.37-3.32,3.55-3.32,3.56l-1.33-1.27Z"/>
            <path class="st7" d="M106.35,409.67v-22.62s22.62,0,22.62,0c0,12.5-10.12,22.62-22.62,22.62"/>
            <path class="st7" d="M83.74,387.06c0-12.5,10.12-22.62,22.62-22.62v22.62s-22.62,0-22.62,0Z"/>
          </g>
          <g>
            <path class="st3" d="M418.86,376.07c0,3.7-2.3,6.7-8.65,6.7h-11.3v-22.72h11.46c5.27,0,7.85,2.81,7.85,6.06,0,1.98-.83,3.96-2.78,4.91,2.46,1.02,3.41,3.22,3.41,5.04M404.92,364.93v4.31h4.88c1.31,0,2.23-.93,2.23-2.2s-.99-2.1-2.23-2.1h-4.88ZM412.67,375.75c0-1.24-.86-2.07-2.39-2.07h-5.36v4.21h5.33c1.6,0,2.43-.7,2.43-2.14"/>
            <path class="st3" d="M442.76,382.77l-.51-15.12c-.35,1.34-.73,2.71-1.18,4.08l-3.57,11.04h-5.81l-3.57-11.04c-.45-1.34-.8-2.68-1.15-4.02l-.51,15.06h-5.78l.93-22.72h8.3l4.69,15.73,4.69-15.73h8.3l.93,22.72h-5.74Z"/>
            <path class="st3" d="M483,360.05c-1.85,7.69-3.83,14.97-6.19,22.72h-7.31l-3.13-14.26-3.16,14.26h-7.31c-2.36-7.75-4.34-15.03-6.22-22.72h6.48c1.08,4.85,2.33,10.05,3.61,15.09l3.22-15.09h6.73l3.22,15.09c1.28-5.04,2.52-10.24,3.61-15.09h6.45Z"/>
            <path class="st3" d="M420.07,414.69l-.51-15.12c-.35,1.34-.73,2.71-1.18,4.08l-3.57,11.04h-5.81l-3.57-11.04c-.45-1.34-.8-2.68-1.15-4.02l-.51,15.06h-5.78l.93-22.72h8.3l4.69,15.73,4.69-15.73h8.29l.93,22.72h-5.74Z"/>
            <path class="st3" d="M427.48,403.34c0-7.24,6.06-11.87,12.6-11.87s12.6,4.63,12.6,11.87-6.06,11.87-12.6,11.87-12.6-4.63-12.6-11.87M446.49,403.34c0-3.57-2.87-6.45-6.41-6.45s-6.41,2.87-6.41,6.45,2.84,6.45,6.41,6.45,6.41-2.84,6.41-6.45"/>
            <polygon class="st3" points="471.98 397.11 465.38 397.11 465.38 414.69 459.32 414.69 459.32 397.11 452.75 397.11 452.75 391.98 471.98 391.98 471.98 397.11"/>
            <path class="st3" d="M472.05,403.34c0-7.24,6.06-11.87,12.6-11.87s12.6,4.63,12.6,11.87-6.06,11.87-12.6,11.87-12.6-4.63-12.6-11.87M491.06,403.34c0-3.57-2.87-6.45-6.41-6.45s-6.41,2.87-6.41,6.45,2.84,6.45,6.41,6.45,6.41-2.84,6.41-6.45"/>
            <path class="st3" d="M519.2,414.57v.13h-6.51c-.41-1.18-.89-2.43-1.5-3.7-.58-1.18-1.25-2.33-1.88-3.25h-3.8v6.96h-6.06v-22.72h9.95c6.41,0,8.81,3.8,8.81,7.47,0,2.68-1.18,4.82-3.41,6.25.99,1.44,1.82,2.87,2.49,4.28.73,1.5,1.37,3.09,1.91,4.59M505.52,402.76h3.86c1.62,0,2.87-1.05,2.87-2.9s-1.25-2.9-2.87-2.9h-3.86v5.81Z"/>
            <path class="st3" d="M541.25,414.57v.13h-6.51c-.41-1.18-.89-2.43-1.5-3.7-.58-1.18-1.25-2.33-1.88-3.25h-3.8v6.96h-6.06v-22.72h9.95c6.41,0,8.81,3.8,8.81,7.47,0,2.68-1.18,4.82-3.41,6.25.99,1.44,1.82,2.87,2.49,4.28.73,1.5,1.37,3.09,1.91,4.59M527.57,402.76h3.86c1.63,0,2.87-1.05,2.87-2.9s-1.24-2.9-2.87-2.9h-3.86v5.81Z"/>
            <path class="st3" d="M558.55,410.29h-8.49c-.38,1.47-.77,2.93-1.12,4.4h-6.09c2.01-8.3,4.34-15.63,7.37-22.72h8.23c3.03,7.08,5.36,14.42,7.34,22.72h-6.13c-.35-1.47-.73-2.93-1.12-4.4M557.08,405.03c-.89-3.16-1.85-6.09-2.78-8.45-.95,2.36-1.88,5.3-2.81,8.45h5.58Z"/>
            <path class="st3" d="M589.21,403.34c0,6.41-4.91,11.36-12.89,11.36h-8.65v-22.72h8.65c7.98,0,12.89,4.95,12.89,11.36M583.02,403.34c0-4.12-3.19-6.13-6.7-6.13h-2.58v12.25h2.58c3.51,0,6.7-2.01,6.7-6.13"/>
          </g>
          <g>
            <path class="st3" d="M340.62,371.66h-43.72c-5.41-8.49-14.9-14.13-25.71-14.13s-20.3,5.64-25.71,14.13h-43.49l4.42,4.43h36.72c-.68,1.6-1.22,3.27-1.62,4.99h-30.13l4.43,4.43h25.02c-.07.82-.11,1.64-.11,2.47s.04,1.69.11,2.52h-20.04l4.42,4.43h16.31c.4,1.72.95,3.39,1.63,4.99h-12.95l4.43,4.43h10.88c5.41,8.46,14.88,14.08,25.67,14.08s20.26-5.61,25.67-14.08h11.12l4.43-4.43h-13.19c.68-1.6,1.22-3.27,1.63-4.99h16.55l4.42-4.43h-20.27c.07-.83.11-1.67.11-2.52s-.04-1.65-.11-2.47h25.25l4.43-4.43h-30.36c-.4-1.72-.94-3.39-1.62-4.99h36.96l4.42-4.43ZM271.3,414.04c-14.36,0-26.01-11.64-26.01-26.01s11.64-26.01,26.01-26.01,26.01,11.64,26.01,26.01-11.64,26.01-26.01,26.01"/>
            <polygon class="st3" points="257.93 391.82 254.4 381.14 250.4 381.14 250.4 394.86 253.32 394.86 253.32 384.68 256.4 394.86 259.43 394.86 262.52 384.68 262.52 394.86 265.44 394.86 265.44 381.14 261.43 381.14 257.93 391.82"/>
            <polygon class="st3" points="283.39 391.19 277.89 381.14 274.66 381.14 274.66 394.86 277.37 394.86 277.37 385.24 282.87 394.94 286.14 394.86 286.14 381.14 283.42 381.14 283.39 391.19"/>
            <rect class="st3" x="268.63" y="381.13" width="2.78" height="13.72"/>
            <rect class="st3" x="289.31" y="381.13" width="2.78" height="13.72"/>
          </g>
          <g>
            <g>
              <path class="st1" d="M651.72,408.96s7.23,0,7.23,0v-1.82s-8.72,0-8.72,0c-1.81,0-2.79.64-2.79,2.9,0,0-.02,1.31-.02,2.56s.02,2.57.02,2.57c0,2.24.98,2.89,2.79,2.89.35,0,8.99,0,8.99,0v-1.86h-7.49c-.52,0-.64-.13-.64-.65,0,0,0-5.82,0-5.97,0-.5.12-.63.64-.63Z"/>
              <polygon class="st1" points="670 407.14 670 411.43 664.16 411.43 664.16 407.14 660.48 407.14 660.48 418.06 664.16 418.06 664.16 413.17 670 413.17 670 418.06 673.69 418.06 673.69 407.14 670 407.14"/>
              <path class="st1" d="M699.38,407.14l-3.56,8.93c-.07.15-.14.17-.38.17-.24,0-.32-.02-.38-.17l-3.53-8.93h-13.22c-1.8,0-2.79.64-2.79,2.91,0,0-.02,1.31-.02,2.56s.02,2.58.02,2.58c0,2.24.99,2.88,2.79,2.88.35,0,9.28,0,9.28,0v-1.86h-7.78c-.52,0-.65-.13-.65-.65,0,0,0-1.09,0-2.37h7.73v-1.8h-7.73c0-.98,0-1.74,0-1.8,0-.5.12-.63.64-.63,0,0,6.35,0,8.3,0,1.14,2.74,3.17,7.47,3.35,7.88.25.57.7,1.22,1.66,1.22h3.43c.96,0,1.28-.64,1.54-1.21.25-.57,4.11-9.71,4.11-9.71h-2.8Z"/>
              <path class="st1" d="M730.38,410.03c0-2.26-.99-2.9-2.79-2.9,0,0-2.18-.01-3.84-.01s-3.83.01-3.83.01c-1.8,0-2.79.64-2.79,2.9,0,0-.02,1.31-.02,2.56s.02,2.6.02,2.6c0,2.24.99,2.89,2.79,2.89,0,0,2.2,0,3.83,0s3.84,0,3.84,0c1.81,0,2.79-.65,2.79-2.89,0,0,.02-1.35.02-2.6s-.02-2.56-.02-2.56ZM721.4,408.95h4.7c.51,0,.63.13.63.63,0,.14,0,6,0,6,0,.51-.12.65-.63.65h-4.7c-.51,0-.63-.14-.63-.65,0,0,0-5.86,0-6,0-.5.12-.63.63-.63Z"/>
              <polygon class="st1" points="735.9 416.21 735.9 407.14 732.24 407.14 732.24 418.06 743.56 418.06 743.56 416.21 735.9 416.21"/>
              <path class="st1" d="M746.74,407.14c-1.8,0-2.79.64-2.79,2.9,0,0-.02,1.31-.02,2.56s.02,2.57.02,2.57c0,2.24.98,2.88,2.79,2.88.35,0,9.28,0,9.28,0v-1.83h-7.78c-.52,0-.64-.13-.64-.65v-2.38h7.69v-1.81h-7.7v-1.79c0-.5.12-.63.64-.63h12.14s0,9.09,0,9.09h3.66v-9.1h4.2v-1.81h-21.5Z"/>
              <path class="st1" d="M711.46,413.38c-.11-.08-.05-.14.06-.14.04,0,1.65,0,1.65,0,1.22,0,2.37-.38,2.45-2.05.08-.44.02-1.54.02-1.54,0-1.81-.93-2.47-2.33-2.47h-10.77v10.89h3.63v-9.1s5.37,0,5.37,0c.33,0,.42.1.44.29.02.23.03.7.03,1.1,0,.46,0,.81-.02,1-.02.18-.21.29-.45.29h-4.33v1.67s5.35,4.76,5.35,4.76h5.04s-6.08-4.65-6.13-4.69Z"/>
            </g>
            <path class="st1" d="M647.41,387.79l11.27-22.96h30.13v-8.2h39.76v8.2h40.58l-10.86,22.96h-29.92v9.02h-39.56v-9.02h-41.4ZM693.73,391.07h29.72v-8.81h26.4l6.15-12.3h-32.55v-8.61h-29.72v8.61h-26.44l-6.15,12.3h32.64l-.05,8.81Z"/>
          </g>
          <g>
            <path class="st23" d="M1150.17,385.64c-1.63-1.54-9.02-8.57-11.01-14.59-.4-1.21-.63-2.43-.63-3.63,0-1.03.23-2.03.63-3.05.9-2.31,2.91-4.77,4.96-6.86.87-.9,4.64-4.57,5.88-5.79.28-.27.48-.67.55-1.02.07-.37.1-1.14.1-1.4v-.71s-22.47,17.51-22.47,17.51c-.25.18-.62.52-.75.97-.14-.45-.51-.79-.75-.98l-22.48-17.51v37.66l22.48-17.51c.24-.18.61-.53.75-.98.11.38.39.66.48.75,1.63,1.54,9.02,8.57,11.01,14.59.4,1.21.63,2.43.63,3.63,0,1.03-.23,2.01-.63,3.02-.9,2.28-2.91,4.72-4.95,6.8-.87.89-4.64,4.54-5.88,5.75-.27.27-.48.66-.55,1.01-.06.28-.1,1.18-.1,1.55v.71s22.47-17.51,22.47-17.51c.31-.23.8-.7.8-1.32,0-.55-.42-.97-.53-1.09ZM1109.24,381.19c-1.75,1.36-3.06,2.44-3.97,3.14-.08.06-.08-.13-.08-.24,0-.07,0-.28.06-.33,1.92-1.72,9.48-7.51,11.67-13.01.45-1.12.71-2.23.71-3.33s-.26-2.21-.71-3.33c-2.19-5.51-9.76-11.29-11.67-13.01-.06-.05-.06-.26-.06-.33,0-.11.02-.28.1-.22.91.7,2.2,1.77,3.95,3.13,1.68,1.31,3.48,2.91,5.26,4.74,2.77,2.85,4.9,5.96,4.9,9.03s-2.12,6.18-4.9,9.03c-1.77,1.82-3.58,3.43-5.26,4.74ZM1126.03,368.41c-2.25,1.59-5.65,4.41-10.18,7.94-.09.07-.07-.2-.05-.28.02-.12.08-.33.13-.38,2.43-2.35,4.09-5.55,4.11-5.59.76-1.46.96-2.43,2.38-2.43h3.86c.59,0,.02.55-.24.73ZM1140.49,358.44c1.77-1.81,3.6-3.37,5.26-4.69.71-.56,1.32-1.04,1.9-1.48.39-.3.7-.53.84-.64.06-.05.06.04.06.08,0,.19.01.35-.15.52-.12.12-.27.25-.6.53-3.08,2.6-8.06,7.07-9.74,11.3-.45,1.12-.71,2.26-.71,3.36s.26,2.24.71,3.36c.67,1.69,1.65,3.51,2.82,5.17.5.68.73.97,1.06,1.43.19.24.28.62.3.81,0,.04-.04.05-.06.03-.07-.04-.21-.16-.33-.27-.37-.34-.84-.81-1.43-1.41-2.81-2.81-4.83-6.09-4.83-9.13s2.12-6.15,4.9-8.97ZM1128.84,368.41c-.25-.2-.85-.73-.26-.73h3.73c1.42,0,1.95,1.41,2.71,2.87.02.03,1.78,3.07,4.07,5.4.18.18.23.47.28.66.04.15,0,.19-.15.08-4.6-3.39-9.53-7.57-10.39-8.28ZM1133.93,398.25c-.22.19-.39.32-.38.17.02-.19.02-.47.12-.58,2.72-2.67,5.41-5.64,6.39-8.01.43-1.04.71-2.08.71-3.1,0-1.12-.19-2.27-.58-3.4-.89-2.55-2.88-5.32-4.94-7.72-.51-.6-.95-1.11-1.11-1.32-.06-.07-.06-.13,0-.13.15.02.32.08.42.17.05.05.63.65.95,1,.64.7,1.29,1.43,1.96,2.22,2.46,2.89,4.63,6.06,4.63,9.18,0,2.84-2.02,5.64-4.67,8.27-.68.67-1.91,1.84-3.5,3.25ZM1149.19,387.81c-2.56,1.8-6.38,4.93-11.5,8.97-.14.11-.12-.22-.11-.32,0-.1.03-.28.09-.34,2.75-2.67,4.7-6.36,4.72-6.4.86-1.66,1.09-2.76,2.7-2.76h4.38c.67,0,.03.62-.27.83Z"/>
            <path class="st23" d="M1179.08,421.84c0,2.28,1.07,3.41,3.44,3.41,2.16,0,3.35-1.16,3.35-3.1s-.69-2.85-2.5-3.41l-.95-.29c-1.08-.34-1.48-.73-1.48-1.78,0-.92.47-1.36,1.46-1.36,1.17,0,1.56.51,1.59,1.68h1.67c0-2.21-1.08-3.17-3.29-3.17-2.08,0-3.11,1.23-3.11,2.94,0,1.84.77,2.69,2.54,3.23l1.01.31c1.01.31,1.37.82,1.37,1.92,0,1.02-.45,1.55-1.67,1.55-1.29,0-1.75-.64-1.77-1.92h-1.67ZM1171.54,425.09h5.75v-1.52h-4.08v-3.42h3.47v-1.51h-3.47v-3.14h3.9v-1.52h-5.57v11.11ZM1163.91,425.09h5.44v-1.52h-3.77v-9.59h-1.67v11.11ZM1159.17,425.09h1.67v-11.11h-1.67v11.11ZM1153.46,420.15c.92,0,1.4.66,1.4,1.84,0,1.08-.5,1.65-1.45,1.65h-1.78v-3.5h1.83ZM1153.32,415.42c.85,0,1.35.6,1.35,1.65s-.44,1.62-1.27,1.62h-1.75v-3.28h1.68ZM1149.98,425.09h3.55c1.97,0,3.03-1.08,3.03-3.04,0-1.39-.51-2.31-1.55-2.65.89-.41,1.27-1.37,1.27-2.56,0-1.86-1.01-2.87-2.85-2.87h-3.45v11.11ZM1143.64,415.33c1.24,0,1.92.72,1.92,2.05v4.3c0,1.33-.67,2.05-1.92,2.05s-1.92-.72-1.92-2.05v-4.3c0-1.33.67-2.05,1.92-2.05M1143.64,413.81c-2.25,0-3.58,1.36-3.58,3.63v4.23c0,2.24,1.33,3.58,3.58,3.58s3.58-1.35,3.58-3.58v-4.23c0-2.27-1.33-3.63-3.58-3.63M1128.65,425.09h1.58v-8.47l2.03,5.38h1.43l2.02-5.37v8.45h1.58v-11.11h-1.96l-2.31,6.3-2.32-6.3h-2.05v11.11ZM1122.3,415.33c1.24,0,1.92.72,1.92,2.05v4.3c0,1.33-.67,2.05-1.92,2.05s-1.92-.72-1.92-2.05v-4.3c0-1.33.67-2.05,1.92-2.05M1122.3,413.81c-2.25,0-3.58,1.36-3.58,3.63v4.23c0,2.24,1.33,3.58,3.58,3.58s3.58-1.35,3.58-3.58v-4.23c0-2.27-1.33-3.63-3.58-3.63M1112.61,425.09h1.67v-9.61h2.73v-1.51h-7.12v1.51h2.72v9.61ZM1107.77,421.77v-7.79h-1.67v7.91c0,1.35-.6,1.84-1.73,1.84s-1.74-.5-1.74-1.84v-7.91h-1.67v7.79c0,2.22,1.17,3.48,3.41,3.48s3.39-1.26,3.39-3.48M1093.58,420.57l1.23-5.19,1.21,5.19h-2.44ZM1097.08,425.09h1.73l-2.75-11.11h-2.44l-2.72,11.11h1.64l.72-3.06h3.11l.72,3.06ZM1077.75,421.84c0,2.28,1.07,3.41,3.44,3.41,2.16,0,3.35-1.16,3.35-3.1s-.69-2.85-2.5-3.41l-.95-.29c-1.08-.34-1.48-.73-1.48-1.78,0-.92.47-1.36,1.46-1.36,1.17,0,1.56.51,1.59,1.68h1.67c0-2.21-1.08-3.17-3.29-3.17-2.08,0-3.11,1.23-3.11,2.94,0,1.84.78,2.69,2.54,3.23l1.01.31c1.01.31,1.37.82,1.37,1.92,0,1.02-.45,1.55-1.67,1.55-1.29,0-1.75-.64-1.77-1.92h-1.67ZM1071.97,415.47c1.26,0,1.94.72,1.94,2.05v4.04c0,1.33-.69,2.05-1.94,2.05h-1.51v-8.13h1.51ZM1068.83,425.09h3.17c2.25,0,3.58-1.32,3.58-3.52v-4.02c0-2.24-1.33-3.57-3.58-3.57h-3.17v11.11Z"/>
          </g>
          <g>
            <polygon class="st23" points="1428.15 387.13 1428.16 387.11 1428.14 387.11 1408.22 349 1408.16 349 1402.45 349 1402.39 349 1382.47 387.11 1382.43 387.11 1395.26 411.66 1398.14 406.13 1388.22 387.14 1388.23 387.14 1405.3 354.47 1422.37 387.13 1402.45 425.25 1408.22 425.25 1428.14 387.14 1428.16 387.14 1428.15 387.13"/>
            <polygon class="st23" points="1416.7 387.14 1403.88 362.6 1400.99 368.12 1410.91 387.11 1410.9 387.11 1393.83 419.78 1376.76 387.13 1396.68 349 1390.91 349 1370.99 387.11 1370.98 387.11 1370.98 387.13 1370.98 387.14 1370.99 387.14 1390.91 425.25 1390.97 425.25 1396.68 425.25 1396.75 425.25 1416.66 387.14 1416.7 387.14"/>
          </g>
        </g>
        <g>
          <path d="M990.82,407.7c6.41,0,12.35-2.97,16.73-8.38,4.38-5.41,6.8-12.81,6.8-20.86s-2.41-15.45-6.8-20.86c-4.38-5.4-10.32-8.38-16.73-8.38s-12.35,2.97-16.73,8.38c-4.38,5.41-6.8,12.81-6.8,20.86s2.41,15.45,6.8,20.86c4.38,5.4,10.32,8.38,16.73,8.38M990.82,351.91c11.66,0,20.5,10.98,20.83,25.68l-20.96-15.56-20.7,15.31c.43-14.57,9.24-25.43,20.83-25.43M970.39,384.04l20.3-15.01,20.52,15.23c-.25,1.54-.6,3.01-1.03,4.43l-19.61-14.53-19.2,14.18c-.41-1.38-.74-2.81-.97-4.3M990.56,381.18l17.36,12.86c-3.71,6.74-9.86,10.98-17.1,10.98s-13.58-4.37-17.27-11.28l17.01-12.56Z"/>
          <g>
            <polygon points="968.37 419.88 972.82 419.88 972.82 426.25 974.57 426.25 974.57 419.88 979.02 419.88 979.02 418.4 968.37 418.4 968.37 419.88"/>
            <rect x="964.61" y="418.4" width="1.75" height="7.85"/>
            <path d="M1026.4,418.44h-6.41v7.84h1.75v-6.36h4.24c1.65,0,2.69.61,2.69,2.46v3.9h1.75v-4.12c0-2.09-1.2-3.72-4.02-3.72"/>
            <path d="M1013.72,417.46h2.58c.29,0,.55-.26.55-.56s-.26-.57-.55-.57h-2.58c-.32,0-.57.26-.57.57s.26.56.57.56"/>
            <path d="M988.57,423.17c2.42-.06,3.22-.7,3.22-2.36,0-1.5-1.07-2.38-2.88-2.38h-7.89v7.84h1.75v-6.36h6.15c.69,0,1.06.31,1.06.94,0,.55-.17,1.08-1.3,1.04h-4.42v.45l5.4,3.9h2.54l-4.49-3.08h.87Z"/>
            <path d="M1001.41,418.27c-.53-.02-1.08-.03-1.62-.03-.92,0-1.52.03-1.52.03h-.03c-1.27.04-2.36.47-3.14,1.23-.75.73-1.16,1.74-1.16,2.85h0c0,2.39,1.73,4.03,4.31,4.09.53.02,1.08.03,1.62.03.92,0,1.52-.03,1.52-.03h.03c1.27-.04,2.36-.47,3.14-1.23.75-.73,1.16-1.74,1.16-2.85h0c0-2.35-1.73-3.99-4.31-4.09M1003.85,422.34c0,1.51-.99,2.49-2.57,2.56h-.07c-.1,0-.47.04-1.27.04-.53,0-1.05-.01-1.52-.03h-.03c-1.6-.04-2.59-1.02-2.59-2.56s.98-2.51,2.57-2.57h.07s.66-.03,1.57-.03c.51,0,.73.01,1.16.03h.07c1.64.08,2.62,1.04,2.62,2.56h0Z"/>
            <polygon points="1008 426.28 1017.55 426.28 1017.55 424.79 1009.75 424.79 1009.75 423.03 1016.59 423.03 1016.59 421.61 1009.75 421.61 1009.75 419.92 1017.55 419.92 1017.55 418.44 1008 418.44 1008 426.28"/>
            <path d="M1009.25,417.46h2.56c.3,0,.56-.26.56-.56s-.26-.57-.56-.57h-2.56c-.32,0-.57.26-.57.57s.26.56.57.56"/>
            <path d="M955.44,418.46h-.03c-1.25.04-2.31.44-3.08,1.16-.73.69-1.13,1.66-1.13,2.71h0c0,2.27,1.7,3.83,4.22,3.89.71.03,2.85.03,3.74.03,1.15,0,2.25,0,2.57-.01v-1.5c-.49,0-4.21.01-4.65.01-.52,0-1.04-.01-1.51-.03-1.55-.04-2.55-.97-2.55-2.38s.99-2.35,2.52-2.41h.07s.65-.03,1.54-.03c.25,0,4.07,0,4.59.01v-1.47c-.34,0-.88-.01-1.6-.01-1.97,0-4.67.03-4.7.03"/>
          </g>
        </g>
      </g>
      <g class="st17">
        <g>
          <path class="st24" d="M654.16,294.24c3.28-.64,5.67-3.78,5.67-7.61,0-2.75-1.31-5.38-3.42-6.86-1.81-1.27-3.73-1.52-6.25-1.52h-5.88c-.7,0-1.28.57-1.28,1.28v24.52h3.41v-22.36h3.09c2.26,0,3.89,0,5.1,1.09,1.07.98,1.62,2.29,1.62,3.89,0,2.64-1.93,4.42-4.8,4.42h-.74c-.51,0-.96.27-1.21.71-.25.45-.24.97.03,1.41l6.67,10.85h4.07l-6.07-9.8Z"/>
          <path class="st5" d="M715.28,304.04c3.75,0,6.93-1.41,9.46-4.19,2.21-2.42,3.29-5.32,3.29-8.86s-1.32-6.66-3.81-9.11c-2.45-2.41-5.44-3.63-8.91-3.63s-6.35,1.21-8.77,3.6h0c-2.5,2.46-3.87,5.71-3.87,9.15s1.29,6.87,3.63,9.29c2.34,2.42,5.53,3.76,8.98,3.76ZM706.11,291.02c0-2.74,1.33-5.58,3.48-7.4,1.63-1.37,3.59-2.1,5.68-2.1,2.51,0,4.87,1,6.63,2.83,1.71,1.77,2.7,4.18,2.7,6.61,0,5.52-4.03,9.84-9.16,9.84-2.53,0-4.88-.98-6.61-2.77-1.76-1.81-2.72-4.3-2.72-7Z"/>
          <path class="st0" d="M689.28,293.61h2.74c2.93,0,4.71-.39,6.14-1.34,2.02-1.35,3.22-3.74,3.22-6.42,0-2.82-1.29-5.14-3.63-6.53-1.52-.9-3.56-1.08-6.15-1.08h-3.89c-1.04,0-1.88.84-1.88,1.88v23.92h3.44v-10.43ZM697.73,285.96c0,2.89-1.65,4.17-5.36,4.17h-3.09v-8.45h2.88c3.96,0,5.57,1.24,5.57,4.28Z"/>
          <path class="st18" d="M671.26,304.02h2.96c2.64-.11,4.56-.93,5.86-2.51,1.34-1.62,1.98-4.02,1.98-7.34v-15.91h-3.39v15.84c0,1.65-.04,2.9-.57,4.01-.76,1.61-2.51,2.65-4.46,2.65h-2.39c-1.95,0-3.7-1.04-4.46-2.65-.53-1.11-.57-2.37-.57-4.01v-15.84h-3.39v15.91c0,3.33.65,5.74,2,7.36,1.39,1.67,3.49,2.49,6.41,2.49Z"/>
          <path class="st14" d="M628.01,304.04c3.75,0,6.93-1.41,9.46-4.19,1.97-2.16,3.07-4.82,3.25-7.91l.03-.53h-13.18v3.23h9.13c-1.35,3.71-4.7,6.15-8.53,6.15-2.53,0-4.88-.98-6.61-2.77-1.76-1.81-2.72-4.3-2.72-7s1.33-5.58,3.48-7.4c1.63-1.37,3.59-2.1,5.68-2.1,3.72,0,7.09,2.26,8.58,5.76l.13.3h3.62l-.22-.66c-.62-1.89-1.69-3.59-3.17-5.05-2.45-2.41-5.44-3.63-8.91-3.63s-6.35,1.21-8.77,3.6c-2.5,2.46-3.87,5.71-3.87,9.15s1.29,6.87,3.63,9.29c2.34,2.42,5.53,3.76,8.98,3.76Z"/>
        </g>
        <g>
          <path class="st16" d="M761.29,291.03c0-3.51-1.32-6.67-3.81-9.12-2.45-2.41-5.45-3.64-8.92-3.64s-6.36,1.21-8.78,3.6c-2.5,2.47-3.88,5.72-3.88,9.16s1.29,6.88,3.63,9.3c2.35,2.43,5.54,3.76,8.99,3.76,3,0,5.66-.92,7.91-2.73l2.69,2.68,2.37-2.37-2.73-2.73c1.67-2.22,2.52-4.88,2.52-7.92ZM742.83,283.66c1.63-1.37,3.6-2.1,5.69-2.1,2.51,0,4.87,1.01,6.64,2.83,1.72,1.77,2.7,4.18,2.7,6.61,0,2.02-.53,3.92-1.53,5.53l-4.26-4.26-2.37,2.37,4.38,4.38c-1.56,1.2-3.41,1.83-5.4,1.83-2.53,0-4.88-.98-6.62-2.77-1.76-1.81-2.73-4.3-2.73-7.01s1.34-5.58,3.48-7.41Z"/>
          <rect class="st21" x="786.46" y="278.27" width="3.44" height="25.83"/>
          <path class="st13" d="M822.39,278.38l-9.98,25.72h3.65l2.96-7.75h10.3l2.96,7.75h3.68l-9.95-25.72h-3.61ZM828.09,293.12h-7.88l3.91-10.49,3.97,10.49Z"/>
          <path class="st8" d="M870.02,278.38h-3.61l-9.98,25.72h3.65l2.96-7.75h10.3l2.96,7.75h3.68l-9.95-25.72ZM872.12,293.12h-7.88l3.91-10.49,3.97,10.49Z"/>
          <path class="st6" d="M853.57,280.94c-2.13-1.79-4.73-2.55-8.7-2.55h-7.52v25.71h6.44c3.21,0,6.25,0,9.26-2.14,3.27-2.35,5.14-6.27,5.14-10.76,0-4.05-1.69-7.78-4.63-10.25ZM840.75,281.75h3.95c2.62,0,4.77.13,6.73,1.82,2.04,1.77,3.16,4.45,3.16,7.55,0,6.22-3.3,9.65-9.3,9.65h-4.54v-19.02Z"/>
          <path class="st2" d="M779.58,294.16c0,1.65-.04,2.91-.57,4.03-.76,1.61-2.52,2.65-4.47,2.65h-2.4c-1.96,0-3.71-1.04-4.47-2.65-.53-1.12-.57-2.37-.57-4.03v-15.89h-3.39v15.96c0,3.34.66,5.76,2.01,7.38,1.4,1.68,3.5,2.49,6.43,2.49h2.96c2.65-.11,4.58-.93,5.88-2.51,1.34-1.62,1.99-4.03,1.99-7.36v-15.96h-3.39v15.89Z"/>
          <path class="st9" d="M808.66,294.33c0,1.62-.04,2.86-.56,3.95-.75,1.58-2.47,2.6-4.39,2.6h-2.36c-1.92,0-3.64-1.02-4.39-2.6-.52-1.09-.56-2.33-.56-3.95v-4.42h-3.35v4.49c0,3.29.65,5.66,1.97,7.25,1.37,1.65,3.44,2.45,6.32,2.45h2.92c2.6-.11,4.49-.92,5.78-2.47,1.32-1.59,1.96-3.96,1.96-7.23v-16.12h-3.35v16.05Z"/>
          <g>
            <path class="st12" d="M877.21,278.7c.31-.31.69-.46,1.13-.46s.83.16,1.14.47c.32.32.49.72.49,1.17s-.14.83-.42,1.14c-.32.35-.74.54-1.22.54-.92,0-1.62-.73-1.62-1.68,0-.44.18-.86.5-1.18ZM878.36,281.25c.72,0,1.29-.6,1.29-1.38,0-.71-.57-1.33-1.31-1.33-.3,0-.58.1-.8.3-.3.26-.49.65-.49,1.04,0,.79.58,1.37,1.32,1.37Z"/>
            <path class="st22" d="M878.89,280.29c-.13.18-.3.27-.52.27-.35,0-.63-.3-.63-.68,0-.35.29-.65.63-.65.22,0,.39.09.53.29l.02.02h.33l-.05-.09c-.17-.32-.47-.51-.84-.51-.25,0-.47.09-.65.27-.19.18-.28.42-.28.67,0,.55.4.96.94.96.35,0,.64-.18.81-.49l.05-.09h-.33l-.02.02Z"/>
          </g>
        </g>
        <g>
          <path class="st15" d="M872.44,207.58c.96-.94,2.12-1.43,3.48-1.43s2.57.49,3.54,1.44c1,.99,1.51,2.22,1.51,3.62s-.43,2.57-1.3,3.52c-1,1.1-2.28,1.67-3.76,1.67-2.83,0-5.01-2.25-5.01-5.19,0-1.37.54-2.65,1.54-3.64ZM875.98,215.48c2.22,0,4-1.85,4-4.27,0-2.19-1.78-4.11-4.07-4.11-.92,0-1.78.32-2.48.92-.93.79-1.51,2.01-1.51,3.22,0,2.44,1.8,4.25,4.07,4.25Z"/>
          <path class="st19" d="M877.62,212.51c-.4.56-.94.84-1.61.84-1.09,0-1.95-.92-1.95-2.09,0-1.1.89-2.02,1.95-2.02.69,0,1.21.28,1.65.88l.06.08h1.03l-.14-.27c-.52-1-1.46-1.57-2.58-1.57-.78,0-1.45.28-2,.82-.58.57-.88,1.29-.88,2.08,0,1.69,1.25,2.97,2.91,2.97,1.08,0,1.99-.55,2.51-1.51l.15-.27h-1.02l-.06.08Z"/>
        </g>
        <g>
          <path class="st10" d="M722.22,222.25c-35.16,0-63.67-28.5-63.67-63.67,0-35.27,28.4-63.67,63.67-63.67,35.16,0,63.67,28.5,63.67,63.67,0,22.98-12.18,43.12-30.44,54.31-1.64,1-.94,3.52.98,3.52h53.59c1.27,0,2.45-.66,3.12-1.74,10.08-16.3,15.89-35.51,15.89-56.09,0-58.99-47.82-106.82-106.82-106.82-58.95,0-106.82,47.87-106.82,106.82,0,58.99,47.83,106.82,106.82,106.82h158.76v-43.15h-158.76Z"/>
          <path class="st20" d="M734.3,96.06c29.38,5.65,51.58,31.49,51.58,62.52,0,22.98-12.18,43.12-30.44,54.31-1.64,1-.94,3.52.98,3.52h53.59c1.27,0,2.45-.66,3.12-1.74,10.08-16.3,15.89-35.51,15.89-56.09,0-49.65-33.87-91.38-79.77-103.36-5.16,13.55-10.03,27.21-14.96,40.84Z"/>
        </g>
      </g>
    </g>
  </g>
</svg>